<svg height="54" preserveAspectRatio="xMidYMid" width="205" xmlns="http://www.w3.org/2000/svg"><g fill-rule="evenodd"><path d="M203.947 34.232c-.371.971-.913 1.831-1.626 2.578s-1.592 1.343-2.636 1.787c-1.046.444-2.242.666-3.589.666a9.144 9.144 0 0 1-3.238-.571 8.003 8.003 0 0 1-2.666-1.633 7.625 7.625 0 0 1-1.801-2.578c-.44-1.011-.66-2.146-.66-3.406 0-1.152.218-2.222.652-3.208a8.064 8.064 0 0 1 1.78-2.571 8.139 8.139 0 0 1 2.666-1.706 8.774 8.774 0 0 1 3.296-.616c1.152 0 2.239.194 3.259.579 1.021.386 1.909.935 2.666 1.648s1.355 1.577 1.795 2.593c.439 1.015.659 2.153.659 3.413a8.412 8.412 0 0 1-.557 3.025zm-2.746-5.486c-.24-.957-.601-1.785-1.084-2.483a5.255 5.255 0 0 0-1.809-1.641c-.723-.395-1.568-.593-2.535-.593-.742 0-1.426.141-2.05.425a4.565 4.565 0 0 0-1.619 1.23c-.454.538-.808 1.196-1.062 1.978-.254.781-.381 1.67-.381 2.666 0 1.113.125 2.151.374 3.113s.615 1.797 1.098 2.505a5.342 5.342 0 0 0 1.809 1.67c.723.405 1.563.607 2.52.607.742 0 1.426-.146 2.051-.439.624-.293 1.164-.713 1.618-1.26s.806-1.213 1.055-2c.249-.785.374-1.672.374-2.658 0-1.123-.12-2.163-.359-3.12zm-18.736 10.481c-.884.151-1.775.227-2.673.227-1.807 0-3.46-.262-4.959-.784s-2.788-1.262-3.867-2.219-1.919-2.107-2.519-3.45c-.601-1.342-.901-2.834-.901-4.475 0-.928.119-1.84.359-2.739a10.81 10.81 0 0 1 1.047-2.563 10.512 10.512 0 0 1 1.699-2.235 10.964 10.964 0 0 1 2.307-1.765 11.806 11.806 0 0 1 2.857-1.164c1.04-.279 2.165-.418 3.376-.418 1.885 0 3.633.289 5.245.865l.996 2.71-.132.058c-.762-.703-1.677-1.264-2.747-1.685-1.069-.419-2.244-.629-3.523-.629-1.23 0-2.358.193-3.384.578a7.4 7.4 0 0 0-2.644 1.678c-.737.732-1.311 1.631-1.721 2.695s-.615 2.275-.615 3.632c0 1.495.195 2.889.586 4.183.39 1.294.972 2.414 1.743 3.362.771.947 1.736 1.691 2.893 2.233s2.507.814 4.05.814a8.093 8.093 0 0 0 4.725-1.531 7.476 7.476 0 0 0 1.237-1.121l.161.103-1.171 2.988c-.733.283-1.541.5-2.425.652z" fill="#cabe9f"/><path d="M164.257 24.102c-.044.323-.08.721-.11 1.194a36.168 36.168 0 0 0-.058 1.685c-.01.649-.015 1.413-.015 2.292v9.932h-.571L151.857 27.75v5.214c0 .879.005 1.646.015 2.301.01.654.027 1.217.051 1.691.025.474.059.872.103 1.194s.1.586.168.791V39h-2.197v-.059c.068-.205.127-.469.176-.791s.088-.72.117-1.194.049-1.037.059-1.691c.009-.655.014-1.422.014-2.301v-3.691c0-.879-.005-1.643-.014-2.292-.01-.65-.03-1.211-.059-1.685a13.782 13.782 0 0 0-.117-1.194 4.936 4.936 0 0 0-.176-.791v-.058h.908l11.66 11.513v-5.493c0-.879-.005-1.643-.014-2.292-.01-.65-.027-1.211-.052-1.685a17.662 17.662 0 0 0-.095-1.194 4.164 4.164 0 0 0-.161-.791v-.058h2.183v.058a4.424 4.424 0 0 0-.169.791zM144.826 36.81c-.713.747-1.592 1.343-2.637 1.787s-2.241.666-3.588.666c-1.143 0-2.222-.19-3.238-.571s-1.904-.925-2.666-1.633a7.642 7.642 0 0 1-1.802-2.578c-.439-1.011-.659-2.146-.659-3.406 0-1.152.217-2.222.652-3.208a8.064 8.064 0 0 1 1.78-2.571 8.139 8.139 0 0 1 2.666-1.706 8.774 8.774 0 0 1 3.296-.616c1.152 0 2.239.194 3.259.579 1.02.386 1.909.935 2.666 1.648s1.355 1.577 1.795 2.593c.439 1.015.659 2.153.659 3.413a8.412 8.412 0 0 1-.557 3.025 7.652 7.652 0 0 1-1.626 2.578zm-1.12-8.064c-.24-.957-.601-1.785-1.084-2.483a5.25 5.25 0 0 0-1.81-1.641c-.722-.395-1.567-.593-2.534-.593a4.9 4.9 0 0 0-2.051.425 4.561 4.561 0 0 0-1.618 1.23c-.454.538-.808 1.196-1.062 1.978-.254.781-.381 1.67-.381 2.666 0 1.113.124 2.151.374 3.113.249.962.615 1.797 1.098 2.505a5.333 5.333 0 0 0 1.809 1.67c.723.405 1.563.607 2.52.607.742 0 1.425-.146 2.051-.439.624-.293 1.164-.713 1.618-1.26s.806-1.213 1.055-2c.249-.785.373-1.672.373-2.658 0-1.123-.119-2.163-.358-3.12zm-16.78 9.302c-.381.4-.87.73-1.465.988-.596.259-1.318.388-2.168.388-.469 0-.916-.039-1.34-.117a9.824 9.824 0 0 1-1.172-.285 7.515 7.515 0 0 1-.952-.366 6.61 6.61 0 0 1-.696-.374l.263-2.769h.308c.098.343.242.684.432 1.026.191.342.425.652.703.93.279.278.606.503.982.674s.808.256 1.296.256c.342 0 .664-.056.967-.168s.564-.271.784-.477a2.19 2.19 0 0 0 .52-.754c.126-.297.19-.632.19-1.003 0-.44-.088-.847-.264-1.223a4.844 4.844 0 0 0-.703-1.084 9.614 9.614 0 0 0-.988-1.004 92.498 92.498 0 0 0-1.136-.981c-.39-.332-.769-.671-1.135-1.018s-.696-.721-.989-1.121-.527-.827-.703-1.281a4.128 4.128 0 0 1-.264-1.502c0-.576.122-1.094.367-1.553.244-.459.566-.847.966-1.164.401-.318.86-.562 1.377-.733a5.107 5.107 0 0 1 1.612-.256c.41 0 .793.029 1.15.088a8.79 8.79 0 0 1 1.721.461c.215.083.39.149.527.198l-.073 2.49h-.293a5.232 5.232 0 0 0-.286-.63 3.65 3.65 0 0 0-.527-.747 2.954 2.954 0 0 0-.813-.623c-.322-.17-.708-.256-1.157-.256-.342 0-.647.056-.916.169a1.977 1.977 0 0 0-.681.461 1.98 1.98 0 0 0-.425.696 2.567 2.567 0 0 0 .315 2.322c.308.459.691.915 1.15 1.37.459.453.957.91 1.494 1.369s1.035.937 1.494 1.436a8.116 8.116 0 0 1 1.15 1.582c.308.556.462 1.152.462 1.787 0 .469-.086.952-.257 1.45s-.446.947-.827 1.348zm-14.488.893c.069-.205.13-.469.184-.791.053-.322.097-.72.131-1.194s.061-1.037.081-1.691c.019-.655.029-1.422.029-2.301v-3.691c0-.879-.01-1.643-.029-2.292a42.03 42.03 0 0 0-.081-1.685 13.537 13.537 0 0 0-.131-1.194 5.299 5.299 0 0 0-.184-.791v-.058h3.399v.058a5.19 5.19 0 0 0-.183.791c-.054.323-.098.721-.132 1.194a42.03 42.03 0 0 0-.081 1.685 79.493 79.493 0 0 0-.029 2.292v3.691c0 .879.01 1.646.029 2.301.02.654.047 1.217.081 1.691s.078.872.132 1.194c.053.322.114.586.183.791V39h-3.399zm-5.61-.154v-.212c0-.215-.046-.473-.139-.776s-.205-.613-.337-.931a18.59 18.59 0 0 0-.41-.915 28.179 28.179 0 0 1-.344-.733l-.572-1.171H101.291c-.498 0-.972.002-1.421.007l-1.23.015c-.372.004-.66.007-.865.007l-.542 1.142c-.234.469-.434.877-.6 1.223-.166.348-.303.653-.41.916a5.428 5.428 0 0 0-.235.681 2.156 2.156 0 0 0-.073.535c0 .107.005.188.015.242a.308.308 0 0 0 .044.124V39h-2.579v-.059c.069-.068.176-.217.323-.446.146-.23.315-.511.505-.843a39.604 39.604 0 0 0 1.267-2.432l5.977-12.334h1.098l5.86 12.334a37.488 37.488 0 0 0 1.318 2.498c.195.337.366.615.513.835.146.22.244.349.293.388V39h-3.75a.91.91 0 0 0 .029-.213zm-5.361-12.385l-3.12 6.504h.893c.41 0 .847-.002 1.311-.007s.93-.008 1.399-.008.923-.002 1.362-.007c.44-.005.835-.007 1.187-.007zM88.649 38.941c.049-.107.096-.283.14-.527.043-.244.065-.537.065-.879 0-.127-.005-.256-.014-.389a9.926 9.926 0 0 0-.044-.432l-1.86-14.032-8.643 16.259-1.011-.117-8.701-16.289c-.342 2.314-.64 4.453-.894 6.416l-.322 2.512c-.107.835-.203 1.614-.285 2.337-.084.722-.149 1.36-.198 1.911-.049.552-.073.96-.073 1.223 0 .332.009.625.029.879.019.254.039.469.058.645.03.205.059.386.088.542h-2.929v-.059a4.61 4.61 0 0 0 .366-.695 4.91 4.91 0 0 0 .322-1.165l.359-2.307c.132-.855.268-1.751.41-2.689a429.089 429.089 0 0 0 .835-5.778l.381-2.754c.122-.884.232-1.692.33-2.424a125.001 125.001 0 0 0 .38-3.135h1.861l9.214 17.226 9.14-17.226h1.392l2.402 17.402c.068.547.142 1.016.22 1.406.078.391.156.726.234 1.004s.154.508.227.689c.074.18.144.329.213.446V39h-3.692z" fill="#fff"/><path d="M53.99 27.832l-.023.465c-.022.317-.021.736-.095 1.397-.035.319-.058.685-.115 1.067l-.191 1.247c-.093.445-.178.926-.298 1.433-.133.503-.255 1.043-.443 1.596a25.792 25.792 0 0 1-3.696 7.467 27.196 27.196 0 0 1-7.732 7.269c-1.64 1.038-3.468 1.904-5.416 2.621-.487.178-.989.327-1.491.487-.512.128-1.018.29-1.544.392l-.786.174c-.262.058-.53.097-.797.146-.532.106-1.075.166-1.621.233-.545.069-1.099.091-1.654.134-.124.001-.25.002-.374.005l-.097.034-.217-.03c-.33.009-.658.023-.997.012l-.837-.014c-.281-.008-.569-.035-.855-.053-.577-.027-1.143-.109-1.718-.175-1.142-.172-2.294-.387-3.427-.719-.573-.145-1.131-.351-1.699-.534-.554-.218-1.123-.411-1.668-.667a26.473 26.473 0 0 1-6.267-3.802 27.769 27.769 0 0 1-5.131-5.548C1.875 38.267.138 33.084.009 27.794c-.149-5.287 1.316-10.65 4.129-15.118 2.784-4.494 6.914-8.025 11.505-10.164C20.252.381 25.289-.357 29.922.158c2.32.253 4.551.785 6.606 1.573a27.336 27.336 0 0 1 5.631 2.939 27.178 27.178 0 0 1 7.635 7.974 27.053 27.053 0 0 1 3.35 7.818c.586 2.291.753 4.147.81 5.403.046.628.026 1.112.034 1.436l.002.493zM51 27.756l-.001.038-.021-.439c-.02-.289-.017-.719-.083-1.276a23.236 23.236 0 0 0-.913-4.739 24.131 24.131 0 0 0-3.194-6.712 24.877 24.877 0 0 0-6.806-6.688 25.185 25.185 0 0 0-4.849-2.475c-1.76-.674-3.665-1.128-5.651-1.383-.5-.069-.961-.09-1.461-.136l-.826-.027-.415-.013-.34.004c-.515.001-1.033.008-1.553.051-.522.02-1.041.094-1.566.15-1.043.15-2.096.338-3.132.636-.525.128-1.035.314-1.555.477-.507.197-1.029.367-1.528.6a24.227 24.227 0 0 0-5.757 3.444 25.535 25.535 0 0 0-4.737 5.062c-2.718 3.838-4.321 8.592-4.449 13.464a27.65 27.65 0 0 0 .164 3.649c.155 1.209.369 2.414.693 3.591a24.798 24.798 0 0 0 2.929 6.667c2.438 3.923 6.004 7.026 9.97 9.001l12.849-9.507v2.551l-11.121 7.73c.7.28 1.406.539 2.121.752l9-6.332v2.55l-6.249 4.427c.898.162 1.796.276 2.69.337l3.559-2.613v2.59c.298-.025.599-.041.894-.077.203-.023.4-.061.601-.089V7.409l2.058 2.653v42.577c.492-.116.976-.247 1.452-.392V11.935l2.058 2.654v36.928c.497-.204.98-.424 1.453-.656V16.462l2.058 2.654.003 30.604c.482-.299.953-.606 1.399-.928a24.771 24.771 0 0 0 6.709-7.394 23.997 23.997 0 0 0 1.806-3.726c.456-1.192.816-2.306 1.042-3.336.245-1.024.393-1.952.508-2.759l.115-1.125c.033-.343.035-.641.052-.914.039-.525.018-1.019.024-1.316v-.466zM14.922 46.748l13.846-10.253v2.55L14.922 49.299zm0-4.7l13.846-10.254v2.55L14.922 44.598zm0-4.701l13.846-10.254v2.551L14.922 39.897zm0-4.701l13.846-10.253v2.55L14.922 35.197zm0-4.59l13.846-10.253v2.55L14.922 30.607zm0-4.59l13.846-10.253v2.55L14.922 26.017z" fill="#cabe9f"/></g></svg>